<svg width="28" height="35" viewBox="0 0 28 35" fill="none" xmlns="http://www.w3.org/2000/svg">
<path fill-rule="evenodd" clip-rule="evenodd" d="M21.9117 13.7772V10.8096C21.9117 8.76572 21.0858 6.83723 19.5863 5.37968C18.0868 3.92213 16.1028 3.11929 14.0002 3.11929C11.8975 3.11929 9.91352 3.92213 8.41403 5.37968C6.91455 6.83723 6.08862 8.76572 6.08862 10.8096V13.7772H21.9117ZM2.87959 13.8491V10.8096C2.87959 9.35561 3.17535 7.94214 3.7582 6.60808C4.32005 5.32263 5.12298 4.16716 6.14497 3.17374C7.16697 2.18033 8.35568 1.39986 9.67811 0.853722C11.0499 0.287491 12.5043 0 14.0002 0C15.496 0 16.9501 0.287491 18.3226 0.854046C19.645 1.40018 20.8337 2.18065 21.8557 3.17407C22.8777 4.16748 23.6806 5.32263 24.2425 6.6084C24.8253 7.94246 25.1211 9.35593 25.1211 10.8099V13.8492C26.7644 14.1778 28 15.5917 28 17.2864V31.4908C28 33.429 26.3838 35 24.3898 35H3.61016C1.61619 35 0 33.429 0 31.4908V17.2864C0 15.5915 1.23591 14.1774 2.87959 13.8491ZM15.51 28.1385L15.0098 24.5544C15.6947 24.2053 16.1622 23.5078 16.1622 22.704C16.1622 21.5505 15.2006 20.6157 14.0138 20.6157C12.8271 20.6157 11.8655 21.5508 11.8655 22.704C11.8655 23.5078 12.3326 24.2053 13.0175 24.5544L12.5174 28.1385H15.51Z" fill="#FFCE64"/>
</svg>
